<svg width="20" height="20" viewBox="0 0 20 20" fill="none" xmlns="http://www.w3.org/2000/svg">
<rect x="1.335" y="1.335" width="17.33" height="17.33" rx="8.665" fill="#35C759"/>
<rect x="1.335" y="1.335" width="17.33" height="17.33" rx="8.665" stroke="white" stroke-width="1.33"/>
<path fill-rule="evenodd" clip-rule="evenodd" d="M10.6995 9.30049C10.9338 9.53481 10.9338 9.91471 10.6995 10.149L8.93491 11.9136C8.70059 12.1479 8.3207 12.1479 8.08638 11.9136C7.85207 11.6793 7.85207 11.2994 8.08638 11.0651L9.85098 9.30049C10.0853 9.06618 10.4652 9.06618 10.6995 9.30049Z" fill="white"/>
<path fill-rule="evenodd" clip-rule="evenodd" d="M13.0245 6.90401C13.0245 6.90401 13.0245 6.90401 13.0245 6.90401L5.93848 9.26621C5.91959 9.2725 5.91391 9.27944 5.91128 9.28292C5.90682 9.28883 5.90167 9.29954 5.90029 9.31437C5.89892 9.3292 5.90201 9.34071 5.90533 9.34737C5.9073 9.35133 5.91162 9.35919 5.92901 9.36885L8.80192 10.9649C8.89986 11.0193 8.98061 11.1001 9.03502 11.198L10.631 14.0708C10.6407 14.0882 10.6486 14.0926 10.6526 14.0946C10.6592 14.0979 10.6707 14.101 10.6856 14.0996C10.7004 14.0983 10.7111 14.0931 10.717 14.0887C10.7205 14.086 10.7274 14.0804 10.7337 14.0615L13.0959 6.97547C13.1015 6.95871 13.1 6.95002 13.0987 6.94497C13.0968 6.93756 13.0918 6.92743 13.0822 6.91777C13.0725 6.90811 13.0624 6.90314 13.055 6.90122C13.0499 6.89992 13.0412 6.89843 13.0245 6.90401ZM12.645 5.76559C13.627 5.43824 14.5617 6.37288 14.2343 7.35494L11.8721 14.4409C11.5264 15.4783 10.1126 15.6089 9.58204 14.6536C9.58202 14.6536 9.58206 14.6536 9.58204 14.6536L8.06929 11.9306L5.34645 10.418C5.34642 10.4179 5.34649 10.418 5.34645 10.418C4.39112 9.88736 4.52167 8.47358 5.55898 8.1278C5.55897 8.1278 5.55898 8.1278 5.55898 8.1278L12.645 5.76559Z" fill="white"/>
</svg>
