<svg width="27" height="9" viewBox="0 0 27 9" fill="none" xmlns="http://www.w3.org/2000/svg">
<path id="Vector" d="M25.2494 11.3572C25.4705 13.1731 25.4504 14.999 25.0485 16.7146C24.6668 18.4201 23.9032 20.0253 22.6575 21.4299C21.8538 22.3328 21.03 23.0752 20.1861 23.6972C17.4836 25.6736 14.5702 26.3057 11.8376 26.0047C9.10499 25.7138 6.56326 24.4898 4.61427 22.7542C3.93112 22.1422 3.31829 21.4801 2.80593 20.7677C1.52 19.002 0.806707 16.7246 0.907169 14.5275C0.957401 13.4339 1.20856 12.3605 1.68074 11.3873C2.15292 10.4242 2.84612 9.55136 3.80052 8.85911C5.38784 7.70537 7.6784 7.02314 10.8129 7.15357C11.9079 7.20373 13.4952 7.87591 14.6807 9.06979C15.5748 9.97272 16.2178 11.1666 16.2178 12.6113C16.2178 13.6045 16.047 14.5275 15.6652 15.3502C15.2835 16.1728 14.7008 16.9052 13.8569 17.5373C13.1135 18.0991 11.9883 18.059 11.0138 17.6677C10.5517 17.4871 10.1297 17.2162 9.78813 16.9052C9.4566 16.5942 9.20545 16.243 9.07485 15.8618C8.89402 15.3 8.98443 14.6479 9.52693 13.9958C9.74795 13.7349 9.85846 13.6848 9.92878 13.745C10.1096 13.8954 10.3005 14.2867 10.5014 14.688L10.5115 14.7081C10.7425 15.1896 10.9836 15.6612 11.3252 15.932C11.8074 16.3033 12.3399 16.2932 12.9728 15.4806C13.1436 15.2599 13.2742 14.8084 13.2742 14.2666C13.2742 13.7951 13.1938 13.2333 12.9728 12.6815C12.7518 12.1197 12.4002 11.5779 11.8677 11.1565C11.285 10.695 10.4914 10.3941 9.44656 10.3941C8.1104 10.3941 6.97515 10.7151 6.11117 11.287C5.19695 11.8889 4.58413 12.7618 4.34302 13.8152C4.05167 15.0693 4.24255 16.5541 4.71473 17.8984C5.22709 19.3331 6.07098 20.6474 7.03543 21.4299C8.2209 22.383 9.758 22.9849 11.3956 23.2056C13.003 23.4163 14.7209 23.2458 16.2881 22.6438C18.2873 21.8713 19.8646 20.527 20.9295 18.8917C21.9743 17.2865 22.5269 15.4003 22.5269 13.4941C22.5169 11.588 21.9542 9.65167 20.7587 7.9662C19.5431 6.26067 17.6846 4.80596 15.1027 3.87293C10.2503 2.12727 6.47284 3.90303 4.17223 4.99657C3.24797 5.43801 2.58491 5.73897 2.38398 5.63864C2.25338 5.56841 2.16296 5.48817 2.11273 5.40791C2.00222 5.23736 2.02231 4.99656 2.13282 4.73572C2.26343 4.39461 2.53467 4.01338 2.8662 3.64217C3.56945 2.8797 4.55398 2.19749 5.35769 1.91657C6.41256 1.5554 7.64826 1.26445 8.97438 1.0939C10.2704 0.923344 11.6467 0.853114 13.013 0.903276C16.3183 1.02367 19.091 2.24765 21.1505 4.02342C23.5114 6.03996 24.9481 8.7688 25.2595 11.3773L25.2494 11.3572ZM25.9025 16.9052C26.3244 15.0793 26.3445 13.1631 26.1235 11.2569C25.7919 8.44776 24.2348 5.50824 21.7131 3.34121C19.513 1.45509 16.5694 0.150851 13.0431 0.0103953C11.6266 -0.0397675 10.2 0.0304726 8.86387 0.211059C7.47747 0.391644 6.18149 0.692606 5.0764 1.07384C4.13204 1.40492 3.00685 2.17741 2.22324 3.04021C1.81134 3.48165 1.48986 3.95319 1.31907 4.40466C1.11815 4.92635 1.1081 5.42796 1.37935 5.85936C1.50995 6.07004 1.71088 6.25064 1.99218 6.40112C2.57486 6.71213 3.39867 6.32087 4.554 5.77911C6.7441 4.74576 10.3105 3.07033 14.8314 4.68557C17.2325 5.54837 18.9604 6.89272 20.0756 8.46783C21.1706 10.0028 21.683 11.7585 21.683 13.4941C21.693 15.2298 21.1807 16.9554 20.2263 18.4201C19.2618 19.915 17.8252 21.139 15.9968 21.8412C14.5702 22.393 13.003 22.5435 11.5362 22.3529C10.0493 22.1623 8.66294 21.6205 7.60808 20.7677C6.76418 20.0855 6.02076 18.9117 5.55863 17.6175C5.12664 16.4036 4.95584 15.0993 5.207 14.0158C5.39788 13.1831 5.88011 12.4909 6.60344 12.0194C7.32678 11.5478 8.29123 11.277 9.46666 11.277C10.3005 11.277 10.9133 11.5077 11.3554 11.8488C11.7572 12.1598 12.0184 12.5712 12.1892 13.0026C12.36 13.444 12.4303 13.8954 12.4303 14.2767C12.4303 14.6278 12.3901 14.8786 12.3198 14.9589C12.0887 15.2599 11.9682 15.3201 11.8878 15.2599C11.707 15.1194 11.5161 14.7281 11.3252 14.3369L11.3152 14.3168C11.0841 13.8453 10.853 13.3637 10.5115 13.0828C10.0393 12.7016 9.51689 12.6915 8.88397 13.454C8.13049 14.377 8.00993 15.3 8.27114 16.1427C8.44193 16.6744 8.7835 17.156 9.2155 17.5573C9.63744 17.9486 10.1598 18.2696 10.7124 18.4903C11.9481 18.992 13.3948 19.002 14.3994 18.2496C15.3638 17.5272 16.037 16.6845 16.479 15.7414C16.911 14.7984 17.1119 13.755 17.1119 12.6414C17.1119 10.9358 16.3584 9.54131 15.3237 8.49792C13.9875 7.14353 12.139 6.38107 10.8731 6.32088C7.52771 6.18042 5.04626 6.92282 3.30824 8.18692C2.23329 8.96946 1.44967 9.95264 0.917212 11.0362C0.384754 12.1197 0.113512 13.3035 0.0632801 14.5175C-0.0472279 16.9052 0.726337 19.3933 2.13282 21.3095C2.69542 22.072 3.34843 22.7943 4.06172 23.4264C6.14131 25.2724 8.86386 26.5766 11.7773 26.8876C14.7008 27.1986 17.8252 26.5264 20.7286 24.4096C21.6328 23.7574 22.5068 22.9649 23.3406 22.0218C24.6969 20.4969 25.5107 18.7612 25.9326 16.9152L25.9025 16.9052Z" fill="black"/>
</svg>
